<svg width="2411" height="1600" xmlns="http://www.w3.org/2000/svg" xmlns:xlink="http://www.w3.org/1999/xlink" xml:space="preserve" overflow="hidden"><g transform="translate(-522 -137)"><g><path d="M622 1389C631.632 1379.2 641.265 1369.41 651.423 1363.81 661.58 1358.22 641.965 1378.5 682.947 1355.42 723.929 1332.33 861.585 1249.77 897.313 1225.28 933.041 1200.79 888.206 1218.98 897.313 1208.49 906.42 1197.99 935.843 1170.01 951.955 1162.31 968.067 1154.62 982.078 1161.61 993.987 1162.31 1005.9 1163.01 1000.64 1177.7 1023.41 1166.51 1046.18 1155.31 1098.37 1110.54 1130.59 1095.14 1162.82 1079.75 1194.69 1077.65 1216.76 1074.15 1238.83 1070.66 1248.63 1080.45 1263 1074.15 1277.36 1067.86 1293.12 1054.21 1302.93 1036.37 1312.73 1018.53 1314.84 981.1 1321.84 967.107 1328.85 953.114 1340.76 954.863 1344.96 952.414 1349.16 949.965 1348.11 951.189 1347.06 952.414" stroke="#000000" stroke-width="10.3125" stroke-linecap="round" stroke-linejoin="miter" stroke-miterlimit="8" stroke-opacity="1" fill="none" fill-rule="evenodd"/><path d="M658 1375C710.901 1384.99 763.803 1394.97 811.449 1412.85 859.095 1430.72 900.786 1447.54 943.878 1482.23 986.969 1516.92 1028.48 1568.96 1070 1621" stroke="#000000" stroke-width="10.3125" stroke-linecap="round" stroke-linejoin="miter" stroke-miterlimit="8" stroke-opacity="1" fill="none" fill-rule="evenodd"/><path d="M895 1217.29C906.24 1201.19 917.481 1185.09 972.981 1240.38 1028.48 1295.67 1128.24 1422.33 1228 1549" stroke="#000000" stroke-width="10.3125" stroke-linecap="round" stroke-linejoin="miter" stroke-miterlimit="8" stroke-opacity="1" fill="none" fill-rule="evenodd"/><path d="M910 1223C921.611 1239.3 933.222 1255.59 937.444 1281.88 941.667 1308.16 920.907 1339.35 935.333 1380.71 949.759 1422.06 986.88 1476.03 1024 1530" stroke="#000000" stroke-width="10.3125" stroke-linecap="round" stroke-linejoin="miter" stroke-miterlimit="8" stroke-opacity="1" fill="none" fill-rule="evenodd"/><path d="M1011 1175C1025.9 1190.45 1040.8 1205.9 1050.97 1225.57 1061.13 1245.24 1066.57 1269.12 1072 1293" stroke="#000000" stroke-width="10.3125" stroke-linecap="round" stroke-linejoin="miter" stroke-miterlimit="8" stroke-opacity="1" fill="none" fill-rule="evenodd"/><path d="M1250.31 1166.31C1227.87 1160.52 1205.43 1154.74 1197.71 1168.41 1190 1182.08 1200.87 1228 1204.02 1248.33 1207.18 1268.66 1211.04 1274.61 1216.65 1290.39 1222.26 1306.16 1218.4 1316.68 1237.68 1342.96 1256.97 1369.25 1294.14 1386.78 1332.36 1448.12 1370.58 1509.46 1418.79 1610.23 1467 1711" stroke="#000000" stroke-width="10.3125" stroke-linecap="round" stroke-linejoin="miter" stroke-miterlimit="8" stroke-opacity="1" fill="none" fill-rule="evenodd"/><path d="M1401.97 1244C1391.32 1249.43 1380.66 1254.86 1381.01 1292.36 1381.36 1329.86 1382.41 1398.55 1404.07 1468.99 1425.74 1539.43 1468.37 1627.21 1511 1715" stroke="#000000" stroke-width="10.3125" stroke-linecap="round" stroke-linejoin="miter" stroke-miterlimit="8" stroke-opacity="1" fill="none" fill-rule="evenodd"/><path d="M1412.72 1240C1409.93 1274.87 1407.14 1309.75 1433.68 1391.42 1460.23 1473.08 1516.11 1601.54 1572 1730" stroke="#000000" stroke-width="10.3125" stroke-linecap="round" stroke-linejoin="miter" stroke-miterlimit="8" stroke-opacity="1" fill="none" fill-rule="evenodd"/><path d="M1608 1715C1563.59 1617.52 1519.18 1520.04 1492.15 1441.99 1465.11 1363.94 1452.47 1284.83 1445.8 1246.68 1439.13 1208.53 1445.63 1210.8 1452.12 1213.08" stroke="#000000" stroke-width="10.3125" stroke-linecap="round" stroke-linejoin="miter" stroke-miterlimit="8" stroke-opacity="1" fill="none" fill-rule="evenodd"/><path d="M1463 1263C1475.79 1323.01 1488.57 1383.02 1547.07 1446.18 1605.57 1509.35 1709.79 1575.67 1814 1642" stroke="#000000" stroke-width="10.3125" stroke-linecap="round" stroke-linejoin="miter" stroke-miterlimit="8" stroke-opacity="1" fill="none" fill-rule="evenodd"/><path d="M1936 1490 1742 1730" stroke="#000000" stroke-width="10.3125" stroke-linecap="round" stroke-linejoin="miter" stroke-miterlimit="8" stroke-opacity="1" fill="none" fill-rule="evenodd"/><path d="M2028 1463C2014.76 1488.42 2001.52 1513.85 1986.18 1557.68 1970.85 1601.51 1953.42 1663.76 1936 1726" stroke="#000000" stroke-width="10.3125" stroke-linecap="round" stroke-linejoin="miter" stroke-miterlimit="8" stroke-opacity="1" fill="none" fill-rule="evenodd"/><path d="M2083 1358 2062 1728" stroke="#000000" stroke-width="10.3125" stroke-linecap="round" stroke-linejoin="miter" stroke-miterlimit="8" stroke-opacity="1" fill="none" fill-rule="evenodd"/><path d="M2119 1312 2091 1724" stroke="#000000" stroke-width="10.3125" stroke-linecap="round" stroke-linejoin="miter" stroke-miterlimit="8" stroke-opacity="1" fill="none" fill-rule="evenodd"/><path d="M2220 1021.78C2233.26 1020.2 2246.52 1018.63 2261.87 1042.8 2277.23 1066.96 2302.01 1070.47 2312.12 1166.79 2322.24 1263.11 2326.43 1526.85 2322.59 1620.72 2318.75 1714.59 2303.92 1722.29 2289.09 1730" stroke="#000000" stroke-width="10.3125" stroke-linecap="round" stroke-linejoin="miter" stroke-miterlimit="8" stroke-opacity="1" fill="none" fill-rule="evenodd"/><path d="M2205 1013C2224.97 1015.1 2244.93 1017.2 2257.54 1019.31 2270.15 1021.41 2271.21 1022.46 2280.66 1025.61 2290.12 1028.77 2303.78 1035.43 2314.29 1038.23 2324.8 1041.03 2332.51 1038.23 2343.72 1042.43 2354.92 1046.64 2370.34 1060.3 2381.55 1063.46 2392.76 1066.61 2397.66 1061 2410.97 1061.35 2424.28 1061.7 2442.15 1064.86 2461.41 1065.56 2480.68 1066.26 2510.8 1064.16 2526.57 1065.56 2542.33 1066.96 2551.09 1065.56 2555.99 1073.97 2560.9 1082.38 2552.14 1104.8 2555.99 1116.01 2559.84 1127.23 2557.39 1133.53 2579.11 1141.24 2600.83 1148.95 2655.12 1154.56 2686.3 1162.27 2717.48 1169.97 2749.35 1175.23 2766.17 1187.49 2782.98 1199.76 2778.43 1219.73 2787.18 1235.85 2795.94 1251.97 2811.35 1265.63 2818.71 1284.2 2826.07 1302.77 2828.17 1325.9 2831.32 1347.27 2834.47 1368.65 2837.27 1395.63 2837.62 1412.44 2837.98 1429.26 2832.72 1435.57 2833.42 1448.18 2834.12 1460.8 2837.63 1474.11 2841.83 1488.13 2846.03 1502.14 2851.29 1520.36 2858.64 1532.28 2866 1544.19 2877.91 1545.94 2885.97 1559.61 2894.02 1573.27 2899.98 1585.54 2906.98 1614.27 2913.99 1643 2920.99 1687.5 2928 1732" stroke="#000000" stroke-width="10.3125" stroke-linecap="round" stroke-linejoin="miter" stroke-miterlimit="8" stroke-opacity="1" fill="none" fill-rule="evenodd"/><path d="M631 1380C623.46 1388.58 615.92 1397.17 603.646 1417.83 591.372 1438.5 565.771 1474.58 557.354 1504.01 548.937 1533.43 557.705 1556.55 553.146 1594.38 548.587 1632.22 539.293 1681.61 530 1731" stroke="#000000" stroke-width="10.3125" stroke-linecap="round" stroke-linejoin="miter" stroke-miterlimit="8" stroke-opacity="1" fill="none" fill-rule="evenodd"/><path d="M1467 1034.42C1457.74 1045.64 1448.48 1056.85 1435.55 1053.35 1422.62 1049.84 1398.16 1026.71 1389.42 1013.4 1380.68 1000.08 1385.58 985.711 1383.13 973.445 1380.68 961.18 1377.54 957.675 1374.74 939.803 1371.95 921.93 1372.64 892.843 1366.35 866.209 1360.06 839.576 1348.53 809.788 1337 780" stroke="#000000" stroke-width="10.3125" stroke-linecap="round" stroke-linejoin="miter" stroke-miterlimit="8" stroke-opacity="1" fill="none" fill-rule="evenodd"/><path d="M1423.4 964.463C1419.55 946.122 1415.7 927.781 1410.81 918.349 1405.91 908.917 1396.47 915.554 1394.02 907.868 1391.57 900.183 1394.02 882.716 1396.12 872.235 1398.22 861.755 1401.37 853.021 1406.61 844.986 1411.86 836.951 1420.25 823.327 1427.59 824.026 1434.94 824.724 1449.28 839.746 1450.68 849.178 1452.07 858.611 1435.29 868.742 1435.99 880.619 1436.69 892.497 1453.47 907.519 1454.87 920.445 1456.27 933.371 1445.78 945.249 1444.38 958.174 1442.98 971.1 1444.73 984.55 1446.48 998" stroke="#000000" stroke-width="10.3125" stroke-linecap="round" stroke-linejoin="miter" stroke-miterlimit="8" stroke-opacity="1" fill="none" fill-rule="evenodd"/><path d="M1377 853 1385 786" stroke="#000000" stroke-width="10.3125" stroke-linecap="round" stroke-linejoin="miter" stroke-miterlimit="8" stroke-opacity="1" fill="none" fill-rule="evenodd"/><path d="M1455 839C1449.88 820.855 1444.76 802.71 1440.17 794.606 1435.59 786.502 1430.29 793.197 1427.47 790.378 1424.64 787.559 1427.11 780.16 1423.23 777.694 1419.35 775.228 1408.76 777.694 1404.17 775.58 1399.58 773.466 1402.05 765.362 1395.7 765.01 1389.34 764.658 1366.05 773.466 1366.05 773.466 1360.05 774.875 1362.52 772.762 1359.69 773.466 1356.87 774.171 1352.63 776.637 1349.1 777.694 1345.57 778.751 1339.93 778.399 1338.51 779.808 1337.1 781.218 1338.87 783.684 1340.63 786.15" stroke="#000000" stroke-width="10.3125" stroke-linecap="round" stroke-linejoin="miter" stroke-miterlimit="8" stroke-opacity="1" fill="none" fill-rule="evenodd"/><path d="M1455 844.755C1462.53 833.377 1470.06 821.999 1473.91 813.247 1477.76 804.494 1475.31 797.843 1478.11 792.241 1480.91 786.64 1488.96 784.889 1490.71 779.638 1492.46 774.387 1486.16 766.685 1488.61 760.733 1491.06 754.781 1504.02 750.23 1505.42 743.929 1506.82 737.627 1495.97 729.575 1497.02 722.923 1498.07 716.271 1508.57 713.821 1511.72 704.018 1514.87 694.215 1514.52 674.96 1515.92 664.108 1517.32 653.255 1520.83 648.354 1520.13 638.901 1519.43 629.449 1510.67 617.896 1511.72 607.393 1512.77 596.89 1526.08 586.037 1526.43 575.885 1526.78 565.732 1511.72 557.33 1513.82 546.477 1515.92 535.624 1531.33 518.82 1539.03 510.768 1546.74 502.716 1551.64 505.516 1560.04 498.164 1568.44 490.812 1579.65 472.608 1589.45 466.656 1599.26 460.704 1611.16 466.656 1618.86 462.455 1626.57 458.254 1629.02 447.401 1635.67 441.45 1642.32 435.498 1652.48 430.246 1658.78 426.746 1665.08 423.245 1668.23 419.744 1673.49 420.444 1678.74 421.145 1682.94 430.947 1690.29 430.947 1697.64 430.947 1717.6 420.444 1717.6 420.444 1723.55 419.744 1719.35 426.395 1726.01 426.746 1732.66 427.096 1749.81 421.144 1757.52 422.545 1765.22 423.945 1767.67 434.798 1772.22 435.148 1776.78 435.498 1777.48 423.245 1784.83 424.645 1792.18 426.046 1807.59 442.15 1816.34 443.55 1825.09 444.951 1830.35 431.647 1837.35 433.047 1844.35 434.448 1845.75 448.802 1858.36 451.952 1870.96 455.103 1900.37 454.403 1912.98 451.952 1925.58 449.502 1920.68 441.449 1933.99 437.248 1947.29 433.047 1977.4 430.246 1992.81 426.746 2008.22 423.245 2016.62 420.444 2026.42 416.243 2036.23 412.042 2043.58 402.239 2051.63 401.539 2059.69 400.839 2066.34 412.392 2074.74 412.042 2083.14 411.692 2094.35 400.839 2102.05 399.439 2109.75 398.038 2115.01 400.139 2120.96 403.64 2126.91 407.141 2135.31 414.843 2137.77 420.444 2140.22 426.046 2133.21 430.597 2135.66 437.248 2138.12 443.9 2150.02 451.603 2152.47 460.355 2154.92 469.107 2146.87 481.01 2150.37 489.762 2153.87 498.514 2166.13 502.366 2173.48 512.868 2180.83 523.371 2189.59 537.725 2194.49 552.779 2199.39 567.833 2202.54 590.238 2202.89 603.192 2203.24 616.145 2195.89 618.246 2196.59 630.499 2197.29 642.752 2204.99 664.458 2207.09 676.711 2209.19 688.964 2210.24 695.616 2209.19 704.018 2208.14 712.42 2202.19 718.372 2200.79 727.124 2199.39 735.877 2200.09 744.979 2200.79 756.532 2201.49 768.085 2203.94 783.839 2204.99 796.442 2206.04 809.045 2207.44 823.049 2207.09 832.152 2206.74 841.254 2203.59 830.751 2202.89 851.057 2202.19 871.362 2202.19 934.028 2202.89 953.984 2203.59 973.939 2207.44 964.836 2207.09 970.788 2206.74 976.74 2198.69 984.091 2200.79 989.693 2202.89 995.294 2215.5 999.845 2219.7 1004.4 2223.9 1008.95 2224.95 1012.97 2226 1017" stroke="#000000" stroke-width="10.3125" stroke-linecap="round" stroke-linejoin="miter" stroke-miterlimit="8" stroke-opacity="1" fill="none" fill-rule="evenodd"/><path d="M2211.28 832.174C2213.2 820.621 2215.13 809.069 2217.58 798.566 2220.03 788.064 2223.89 779.312 2225.99 769.16 2228.09 759.008 2225.99 746.755 2230.19 737.653 2234.4 728.551 2246.66 724.35 2251.21 714.548 2255.77 704.745 2259.62 686.191 2257.52 678.84 2255.42 671.488 2236.85 678.139 2238.6 670.438 2240.35 662.736 2261.37 643.831 2268.03 632.629 2274.68 621.427 2277.14 612.324 2278.54 603.222 2279.94 594.12 2277.84 586.069 2276.44 578.017 2275.03 569.965 2271.18 565.064 2270.13 554.912 2269.08 544.76 2271.53 526.555 2270.13 517.103 2268.73 507.651 2263.12 506.601 2261.72 498.199 2260.32 489.797 2263.12 474.043 2261.72 466.692 2260.32 459.34 2253.66 462.141 2253.31 454.089 2252.96 446.037 2261.37 425.383 2259.62 418.381 2257.87 411.379 2245.96 415.58 2242.8 412.079 2239.65 408.579 2240.35 402.627 2240.7 397.376 2241.05 392.125 2247.36 386.174 2244.91 380.572 2242.45 374.971 2229.49 369.37 2225.99 363.768 2222.49 358.167 2225.64 352.916 2223.89 346.965 2222.14 341.014 2218.63 334.012 2215.48 328.061 2212.33 322.109 2207.07 316.508 2204.97 311.257 2202.87 306.006 2204.62 302.155 2202.87 296.554 2201.12 290.952 2196.91 282.2 2194.46 277.649 2192.01 273.098 2190.96 273.448 2188.15 269.247 2185.35 265.046 2181.15 257.344 2177.64 252.443 2174.14 247.542 2173.44 244.742 2167.13 239.841 2160.83 234.939 2147.52 226.888 2139.81 223.037 2132.1 219.186 2126.15 219.536 2120.89 216.735 2115.64 213.935 2113.89 209.734 2108.28 206.233 2102.67 202.732 2097.42 199.582 2087.26 195.731 2077.1 191.88 2057.48 187.679 2047.32 183.128 2037.16 178.577 2026.3 168.424 2026.3 168.424 2020.7 167.374 2021.05 176.826 2013.69 176.826 2006.33 176.826 1993.37 172.275 1982.16 168.424 1970.95 164.573 1955.89 157.222 1946.43 153.721 1936.97 150.22 1933.47 146.72 1925.41 147.42 1917.35 148.12 1907.89 157.572 1898.08 157.922 1888.28 158.272 1877.77 151.971 1866.56 149.52 1855.35 147.07 1843.78 143.919 1830.82 143.219 1817.86 142.519 1802.45 143.569 1788.78 145.319 1775.12 147.07 1771.27 151.971 1748.85 153.721 1726.43 155.471 1654.26 155.822 1654.26 155.822 1627.63 156.522 1604.86 155.822 1589.1 157.922 1573.33 160.022 1571.23 164.924 1559.67 168.424 1548.11 171.925 1530.59 175.426 1519.73 178.927 1508.87 182.428 1503.27 188.729 1494.51 189.429 1485.75 190.129 1478.74 181.028 1467.18 183.128 1455.62 185.228 1433.55 195.031 1425.15 202.032 1416.74 209.034 1420.59 218.136 1416.74 225.137 1412.88 232.139 1405.88 237.04 1402.02 244.042 1398.17 251.043 1396.77 259.795 1393.62 267.147 1390.46 274.499 1385.56 283.601 1383.11 288.152 1380.65 292.703 1380.65 289.552 1378.9 294.453 1377.15 299.354 1374 310.557 1372.6 317.558 1371.19 324.56 1372.25 329.461 1370.49 336.463 1368.74 343.464 1366.99 352.566 1362.09 359.568 1357.18 366.569 1347.72 370.07 1341.07 378.472 1334.41 386.874 1327.75 401.577 1322.15 409.979 1316.54 418.381 1306.38 421.882 1307.44 428.883 1308.49 435.885 1325.65 445.337 1328.46 451.989 1331.26 458.64 1327.05 463.541 1324.25 468.792 1321.45 474.043 1315.14 478.244 1311.64 483.496 1308.14 488.747 1305.33 493.298 1303.23 500.3 1301.13 507.301 1301.48 514.303 1299.03 525.505 1296.58 536.707 1289.22 555.962 1288.52 567.515 1287.82 579.067 1293.77 585.719 1294.82 594.821 1295.88 603.923 1296.23 612.325 1294.82 622.127 1293.42 631.929 1286.77 644.532 1286.42 653.634 1286.07 662.736 1290.97 665.887 1292.72 676.739 1294.47 687.592 1296.23 706.846 1296.93 718.749 1297.63 730.651 1295.17 740.804 1296.93 748.155 1298.68 755.507 1304.28 757.608 1307.44 762.859 1310.59 768.11 1315.49 774.061 1315.84 779.662 1316.19 785.264 1310.94 790.164 1309.54 796.466 1308.14 802.767 1307.44 809.419 1307.44 817.471 1307.44 825.523 1307.79 835.675 1309.54 844.777 1311.29 853.879 1315.14 859.831 1317.95 872.083 1320.75 884.336 1323.9 907.441 1326.35 918.294 1328.81 929.146 1330.91 932.297 1332.66 937.198 1334.41 942.099 1336.86 947.7 1336.86 947.7 1339.32 950.501 1349.12 950.151 1347.37 954.002 1345.62 957.853 1331.26 961.703 1326.35 970.805 1321.45 979.907 1324.25 991.81 1317.95 1008.61 1311.64 1025.42 1297.28 1057.27 1288.52 1071.63 1279.76 1085.98 1269.95 1084.93 1265.4 1094.73 1260.84 1104.54 1265.05 1119.59 1261.19 1130.44 1257.34 1141.29 1244.38 1152.15 1242.28 1159.85 1240.17 1167.55 1249.28 1167.55 1248.58 1176.65 1247.88 1185.75 1237.02 1203.61 1238.07 1214.46 1239.12 1225.31 1246.13 1235.11 1254.89 1241.77 1263.65 1248.42 1281.16 1253.67 1290.62 1254.37 1300.08 1255.07 1304.63 1244.22 1311.64 1245.97 1318.65 1247.72 1323.2 1261.37 1332.66 1264.87 1342.12 1268.37 1358.58 1268.72 1368.39 1266.97 1378.2 1265.22 1384.86 1257.17 1391.51 1254.37 1398.17 1251.57 1404.13 1256.12 1408.33 1250.17 1412.53 1244.22 1412.18 1228.46 1416.74 1218.66 1421.29 1208.86 1430.05 1194.51 1435.65 1191.36 1441.26 1188.2 1445.81 1197.66 1450.37 1199.76 1454.92 1201.86 1457.73 1205.71 1462.98 1203.96 1468.24 1202.21 1475.24 1194.86 1481.9 1189.25 1488.55 1183.65 1500.11 1176.65 1502.92 1170.35 1505.72 1164.05 1503.97 1164.05 1498.71 1151.45 1493.46 1138.84 1477.34 1108.39 1471.39 1094.73 1465.43 1081.08 1464.73 1077.23 1462.98 1069.53 1461.23 1061.83 1461.05 1055.17 1460.88 1048.52" stroke="#000000" stroke-width="10.3125" stroke-linecap="round" stroke-linejoin="miter" stroke-miterlimit="8" stroke-opacity="1" fill="none" fill-rule="evenodd"/><path d="M1633.01 865.687C1633.71 869.521 1663.1 867.43 1677.1 871.961 1691.09 876.492 1698.79 891.479 1716.98 892.873 1735.17 894.267 1772.26 883.811 1786.25 880.325 1800.25 876.84 1800.25 875.795 1800.95 871.961 1801.65 868.127 1795 861.853 1790.45 857.322 1785.9 852.791 1783.46 848.26 1773.66 844.775 1763.86 841.29 1743.57 837.456 1731.67 836.41 1719.78 835.365 1712.08 836.41 1702.29 838.501 1692.49 840.592 1682.69 844.426 1672.9 848.957 1663.1 853.488 1632.31 861.853 1633.01 865.687Z" stroke="#000000" stroke-width="10.3125" stroke-linecap="round" stroke-linejoin="miter" stroke-miterlimit="8" stroke-opacity="1" fill="none" fill-rule="evenodd"/><path d="M2005.01 868.136C2011.68 872.695 2040.13 879.708 2055.58 880.76 2071.04 881.812 2086.84 879.357 2097.73 874.448 2108.61 869.539 2113.53 856.214 2120.9 851.304 2128.28 846.395 2142.68 848.499 2141.98 844.992 2141.27 841.485 2126.87 832.719 2116.69 830.264 2106.51 827.809 2094.21 829.563 2080.87 830.264 2067.52 830.965 2047.51 830.615 2036.62 834.472 2025.73 838.329 2021.17 848.148 2015.55 853.408 2009.93 858.668 1998.34 863.577 2005.01 868.136Z" stroke="#000000" stroke-width="10.3125" stroke-linecap="round" stroke-linejoin="miter" stroke-miterlimit="8" stroke-opacity="1" fill="none" fill-rule="evenodd"/><path d="M1612.22 783.566C1616.08 787.766 1672.93 775.866 1702.76 781.466 1732.59 787.066 1768.38 811.216 1791.19 817.166 1814 823.116 1833.65 821.366 1839.62 817.166 1845.58 812.966 1839.97 799.666 1826.98 791.966 1814 784.266 1786.28 776.916 1761.71 770.966 1737.15 765.016 1703.81 754.166 1679.6 756.266 1655.39 758.366 1608.36 779.366 1612.22 783.566Z" stroke="#000000" stroke-width="10.3125" stroke-linecap="round" stroke-linejoin="miter" stroke-miterlimit="8" stroke-opacity="1" fill="none" fill-rule="evenodd"/><path d="M2005.66 815.635C2016.48 817.744 2062.2 810.361 2085.23 802.977 2108.27 795.593 2129.91 777.31 2143.87 771.333 2157.83 765.356 2169 770.982 2169 767.114 2169 763.246 2160.97 746.37 2143.87 748.128 2126.77 749.886 2086.98 770.63 2066.39 777.662 2045.79 784.694 2030.09 784.694 2020.31 790.32 2010.54 795.945 1994.84 813.525 2005.66 815.635Z" stroke="#000000" stroke-width="10.3125" stroke-linecap="round" stroke-linejoin="miter" stroke-miterlimit="8" stroke-opacity="1" fill="none" fill-rule="evenodd"/><path d="M1832.89 1023.77C1823.62 1038.44 1814.36 1053.11 1814.01 1065.68 1813.66 1078.25 1820.3 1093.62 1830.79 1099.21 1841.27 1104.8 1865.39 1097.11 1876.92 1099.21 1888.45 1101.31 1888.8 1108.29 1899.99 1111.78 1911.17 1115.28 1930.74 1123.66 1944.02 1120.17 1957.3 1116.67 1967.09 1095.37 1979.67 1090.83 1992.25 1086.29 2013.22 1102.7 2019.51 1092.92 2025.8 1083.14 2022.66 1053.81 2017.41 1032.15 2012.17 1010.5 2000.11 986.749 1988.06 963" stroke="#000000" stroke-width="10.3125" stroke-linecap="round" stroke-linejoin="miter" stroke-miterlimit="8" stroke-opacity="1" fill="none" fill-rule="evenodd"/><path d="M1725.31 1244.46C1730.92 1239.22 1759.64 1235.73 1769.45 1229.79 1779.26 1223.84 1774.71 1210.91 1784.17 1208.81 1793.62 1206.72 1809.04 1217.9 1826.2 1217.2 1843.37 1216.5 1864.39 1206.02 1887.16 1204.62 1909.93 1203.22 1945.66 1209.86 1962.82 1208.81 1979.99 1207.77 1980.69 1199.73 1990.15 1198.33 1999.61 1196.93 2019.57 1200.43 2019.57 1200.43 2030.08 1201.13 2043.74 1199.38 2053.2 1202.52 2062.66 1205.67 2073.52 1211.96 2076.32 1219.3 2079.13 1226.64 2072.47 1237.47 2070.02 1246.56 2067.57 1255.65 2068.27 1262.99 2061.61 1273.82 2054.96 1284.66 2038.49 1300.39 2030.08 1311.57 2021.68 1322.75 2016.07 1333.59 2011.17 1340.93 2006.26 1348.27 2004.51 1355.96 2000.66 1355.61 1996.8 1355.26 1988.05 1338.83 1988.05 1338.83 1984.54 1335.69 1982.79 1339.53 1979.64 1336.73 1976.49 1333.94 1972.98 1324.5 1969.13 1322.05 1965.28 1319.61 1962.12 1323.45 1956.52 1322.05 1950.91 1320.66 1942.16 1314.71 1935.5 1313.67 1928.84 1312.62 1916.58 1315.76 1916.58 1315.76 1909.58 1316.46 1901.87 1317.51 1893.46 1317.86 1885.05 1318.21 1871.04 1315.41 1866.14 1317.86 1861.23 1320.31 1868.24 1327.3 1864.04 1332.54 1859.83 1337.78 1848.62 1345.82 1840.92 1349.32 1833.21 1352.81 1824.45 1351.41 1817.8 1353.51 1811.14 1355.61 1808.69 1362.95 1800.98 1361.9 1793.27 1360.85 1778.21 1354.21 1771.55 1347.22 1764.9 1340.23 1765.95 1329.74 1761.05 1319.96 1756.14 1310.17 1746.33 1298.29 1742.13 1288.5 1737.92 1278.72 1737.92 1267.88 1735.82 1261.24 1733.72 1254.6 1719.71 1249.71 1725.31 1244.46Z" stroke="#000000" stroke-width="10.3125" stroke-linecap="round" stroke-linejoin="miter" stroke-miterlimit="8" stroke-opacity="1" fill="none" fill-rule="evenodd"/><path d="M1497 1176.93C1510.48 1203.55 1523.96 1230.17 1534.81 1246.28 1545.67 1262.39 1555.47 1263.79 1562.12 1273.6 1568.77 1283.4 1563.52 1294.26 1574.73 1305.12 1585.93 1315.98 1618.84 1327.18 1629.34 1338.74 1639.85 1350.3 1633.2 1364.31 1637.75 1374.47 1642.3 1384.62 1650 1391.63 1656.65 1399.68 1663.31 1407.74 1668.21 1415.8 1677.66 1422.8 1687.11 1429.81 1701.12 1435.76 1713.37 1441.71 1725.63 1447.67 1738.23 1451.52 1751.19 1458.53 1764.14 1465.53 1781.3 1477.09 1791.1 1483.74 1800.9 1490.4 1800.9 1495.3 1810.01 1498.45 1819.11 1501.61 1834.16 1501.61 1845.72 1502.66 1857.27 1503.71 1870.93 1504.06 1879.33 1504.76 1887.73 1505.46 1890.53 1507.56 1896.13 1506.86 1901.74 1506.16 1906.29 1502.66 1912.94 1500.56 1919.59 1498.45 1936.05 1494.25 1936.05 1494.25 1945.15 1491.8 1959.16 1489 1967.56 1485.84 1975.96 1482.69 1979.46 1481.99 1986.47 1475.34 1993.47 1468.68 2002.57 1453.27 2009.57 1445.92 2016.58 1438.56 2021.83 1438.91 2028.48 1431.21 2035.13 1423.5 2043.88 1407.74 2049.49 1399.68 2055.09 1391.63 2059.29 1386.73 2062.09 1382.87 2064.89 1379.02 2063.14 1381.47 2066.29 1376.57 2069.44 1371.67 2081 1353.45 2081 1353.45 2085.9 1345.75 2089.75 1339.09 2095.7 1330.34 2101.65 1321.58 2110.41 1309.67 2116.71 1300.92 2123.01 1292.16 2128.26 1287.26 2133.51 1277.8 2138.77 1268.34 2144.72 1256.08 2148.22 1244.18 2151.72 1232.27 2150.67 1217.21 2154.52 1206.35 2158.37 1195.49 2168.53 1187.44 2171.33 1179.03 2174.13 1170.62 2171.33 1155.91 2171.33 1155.91 2171.33 1149.96 2170.28 1149.61 2171.33 1143.31 2172.38 1137 2177.63 1118.09 2177.63 1118.09 2179.03 1112.48 2178.68 1114.59 2179.73 1109.68 2180.78 1104.78 2183.23 1093.92 2183.93 1088.67 2184.63 1083.41 2182.18 1083.76 2183.93 1078.16 2185.68 1072.56 2191.98 1061 2194.44 1055.04 2196.89 1049.09 2197.59 1048.39 2198.64 1042.44 2199.69 1036.48 2200.74 1019.32 2200.74 1019.32 2201.09 1013.37 2201.09 1011.26 2200.74 1006.71 2200.39 1002.16 2199.51 997.079 2198.64 992" stroke="#000000" stroke-width="10.3125" stroke-linecap="round" stroke-linejoin="miter" stroke-miterlimit="8" stroke-opacity="1" fill="none" fill-rule="evenodd"/><path d="M1480 1011C1486.65 1017.48 1493.3 1023.96 1496.8 1032.01 1500.31 1040.06 1498.2 1052.32 1501.01 1059.32 1503.81 1066.32 1508.01 1069.12 1513.61 1074.03 1519.21 1078.93 1530.41 1082.43 1534.61 1088.73 1538.81 1095.03 1532.51 1105.54 1538.81 1111.84 1545.12 1118.14 1565.77 1119.89 1572.42 1126.55 1579.07 1133.2 1575.92 1143 1578.72 1151.76 1581.53 1160.51 1585.73 1171.71 1589.23 1179.07 1592.73 1186.42 1594.83 1190.97 1599.73 1195.87 1604.63 1200.78 1614.08 1203.93 1618.64 1208.48 1623.19 1213.03 1623.19 1220.03 1627.04 1223.19 1630.89 1226.34 1637.19 1226.69 1641.74 1227.39 1646.29 1228.09 1650.49 1225.29 1654.34 1227.39 1658.19 1229.49 1661 1239.64 1664.85 1239.99 1668.7 1240.34 1677.45 1229.49 1677.45 1229.49 1680.25 1225.64 1680.6 1220.73 1681.65 1216.88 1682.7 1213.03 1680.95 1210.23 1683.75 1206.38 1686.55 1202.53 1698.46 1193.77 1698.46 1193.77 1703.36 1189.57 1707.91 1184.67 1713.16 1181.17 1718.41 1177.67 1724.36 1174.52 1729.96 1172.76 1735.56 1171.01 1741.17 1173.12 1746.77 1170.66 1752.37 1168.21 1759.72 1160.51 1763.57 1158.06 1767.42 1155.61 1764.27 1158.41 1769.87 1155.96 1775.47 1153.51 1790.18 1147.55 1797.18 1143.35 1804.18 1139.15 1808.73 1133.2 1811.88 1130.75 1815.03 1128.3 1812.58 1127.6 1816.08 1128.65 1819.59 1129.7 1827.29 1134.6 1832.89 1137.05 1838.49 1139.5 1845.84 1143 1849.69 1143.35 1853.54 1143.7 1855.99 1139.15 1855.99 1139.15 1858.45 1138.1 1860.9 1137.4 1864.4 1137.05 1867.9 1136.7 1872.45 1136.88 1877 1137.05" stroke="#000000" stroke-width="10.3125" stroke-linecap="round" stroke-linejoin="miter" stroke-miterlimit="8" stroke-opacity="1" fill="none" fill-rule="evenodd"/><path d="M1898 1136.92C1910.09 1143.56 1922.19 1150.2 1933.76 1149.5 1945.33 1148.8 1958.3 1136.22 1967.41 1132.72 1976.53 1129.23 1981.79 1127.48 1988.45 1128.53 1995.11 1129.58 1995.11 1136.22 2007.38 1139.02 2019.65 1141.81 2049.8 1141.11 2062.06 1145.31 2074.33 1149.5 2075.39 1156.84 2081 1164.19 2086.6 1171.53 2092.21 1180.27 2095.72 1189.36 2099.22 1198.45 2099.58 1216.62 2102.03 1218.72 2104.48 1220.82 2107.99 1210.68 2110.44 1201.94 2112.9 1193.2 2113.6 1177.47 2116.75 1166.28 2119.91 1155.1 2125.17 1146.01 2129.37 1134.82 2133.58 1123.63 2135.33 1109.65 2141.99 1099.16 2148.66 1088.68 2161.98 1082.03 2169.34 1071.9 2176.7 1061.76 2181.26 1047.77 2186.17 1038.34 2191.07 1028.9 2198.79 1015.26 2198.79 1015.26 2200.89 1010.72 2199.84 1010.89 2198.79 1011.07" stroke="#000000" stroke-width="10.3125" stroke-linecap="round" stroke-linejoin="miter" stroke-miterlimit="8" stroke-opacity="1" fill="none" fill-rule="evenodd"/><path d="M1972 931C1960.98 911.889 1949.95 892.779 1946.39 865.779 1942.84 838.779 1946.75 803.889 1950.66 769" stroke="#000000" stroke-width="10.3125" stroke-linecap="round" stroke-linejoin="miter" stroke-miterlimit="8" stroke-opacity="1" fill="none" fill-rule="evenodd"/><path d="M1720.76 836.285C1725.41 835.886 1730.32 835.886 1736.28 836.418L1752.08 838.826 1759.02 843.22C1765.8 849.601 1770 858.414 1770 868.15 1770 873.018 1768.95 877.655 1767.05 881.873L1762.5 888.229 1757.84 889.349C1744.52 892.275 1730.67 894.58 1721.55 893.871 1712.44 893.162 1705.95 888.994 1699.99 884.428L1699.52 884.067 1697.95 881.873C1696.05 877.655 1695 873.018 1695 868.15 1695 858.414 1699.2 849.601 1705.98 843.22L1715.61 837.121Z" stroke="#000000" stroke-width="10.3125" stroke-linecap="round" stroke-linejoin="miter" stroke-miterlimit="8" stroke-opacity="1" fill="none" fill-rule="evenodd"/><path d="M2096.58 829 2100.29 834.152C2102.03 838.014 2103 842.26 2103 846.718 2103 864.547 2087.55 879 2068.5 879 2049.45 879 2034 864.547 2034 846.718L2036.51 835.104 2037.85 834.137C2048.65 830.276 2068.52 830.627 2081.77 829.925Z" stroke="#000000" stroke-width="10.3125" stroke-linecap="round" stroke-linejoin="miter" stroke-miterlimit="8" stroke-opacity="1" fill="none" fill-rule="evenodd"/><path d="M1732 868C1732 863.582 1735.58 860 1740 860 1744.42 860 1748 863.582 1748 868 1748 872.418 1744.42 876 1740 876 1735.58 876 1732 872.418 1732 868Z" stroke="#000000" stroke-width="10.3125" stroke-linecap="round" stroke-linejoin="miter" stroke-miterlimit="8" stroke-opacity="1" fill="#000000" fill-rule="evenodd" fill-opacity="1"/><path d="M2064 853C2064 848.582 2067.58 845 2072 845 2076.42 845 2080 848.582 2080 853 2080 857.418 2076.42 861 2072 861 2067.58 861 2064 857.418 2064 853Z" stroke="#000000" stroke-width="10.3125" stroke-linecap="round" stroke-linejoin="miter" stroke-miterlimit="8" stroke-opacity="1" fill="#000000" fill-rule="evenodd" fill-opacity="1"/><path d="M1700 389.368C1694.15 367.855 1688.3 346.341 1658.6 338.819 1628.9 331.296 1551.8 332.199 1521.8 344.235 1491.8 356.27 1499 396.289 1478.6 411.032 1458.2 425.776 1421 434.803 1399.4 432.697 1377.8 430.591 1363.4 414.493 1349 398.395" stroke="#000000" stroke-width="10.3125" stroke-linecap="round" stroke-linejoin="miter" stroke-miterlimit="8" stroke-opacity="1" fill="none" fill-rule="evenodd"/><path d="M1801 353C1792 333.098 1783.01 313.196 1759.62 299.13 1736.23 285.064 1689.46 270.1 1660.67 268.603 1631.89 267.107 1612.1 287.159 1586.91 290.151 1561.72 293.144 1531.74 290.151 1509.55 286.56 1487.36 282.969 1470.87 270.698 1453.78 268.603 1436.68 266.508 1421.84 270.249 1407 273.99" stroke="#000000" stroke-width="10.3125" stroke-linecap="round" stroke-linejoin="miter" stroke-miterlimit="8" stroke-opacity="1" fill="none" fill-rule="evenodd"/><path d="M1821 231C1813.05 223.723 1805.1 216.446 1788.6 210.989 1772.1 205.531 1751.1 199.467 1722 198.254 1692.9 197.042 1653.45 200.377 1614 203.712" stroke="#000000" stroke-width="10.3125" stroke-linecap="round" stroke-linejoin="miter" stroke-miterlimit="8" stroke-opacity="1" fill="none" fill-rule="evenodd"/><path d="M1580 458.494C1552.62 457.602 1525.24 456.711 1502.37 467.415 1479.5 478.119 1466.56 509.637 1442.79 522.721 1419.02 535.804 1381.71 547.103 1359.75 545.914 1337.78 544.724 1324.39 530.154 1311 515.584" stroke="#000000" stroke-width="10.3125" stroke-linecap="round" stroke-linejoin="miter" stroke-miterlimit="8" stroke-opacity="1" fill="none" fill-rule="evenodd"/><path d="M1506 619C1481.95 645.693 1457.9 672.386 1435.65 681.632 1413.41 690.877 1391.16 675.965 1372.52 674.474 1353.88 672.983 1333.74 670.597 1323.82 672.684 1313.9 674.772 1313.45 680.886 1313 687" stroke="#000000" stroke-width="10.3125" stroke-linecap="round" stroke-linejoin="miter" stroke-miterlimit="8" stroke-opacity="1" fill="none" fill-rule="evenodd"/><path d="M1359.98 921C1362.86 961.489 1365.73 1001.98 1358.17 1034.79 1350.6 1067.6 1329.11 1098.01 1314.58 1117.88 1300.06 1137.74 1285.53 1145.87 1271 1154" stroke="#000000" stroke-width="10.3125" stroke-linecap="round" stroke-linejoin="miter" stroke-miterlimit="8" stroke-opacity="1" fill="none" fill-rule="evenodd"/><path d="M1994.22 346C2001.99 315.487 2009.76 284.975 2001.39 261.641 1993.02 238.308 1968.51 222.154 1944 206" stroke="#000000" stroke-width="10.3125" stroke-linecap="round" stroke-linejoin="miter" stroke-miterlimit="8" stroke-opacity="1" fill="none" fill-rule="evenodd"/><path d="M2058 357C2075.96 328.5 2093.93 300 2110.09 285 2126.26 270 2140.63 268.5 2155 267" stroke="#000000" stroke-width="10.3125" stroke-linecap="round" stroke-linejoin="miter" stroke-miterlimit="8" stroke-opacity="1" fill="none" fill-rule="evenodd"/><path d="M1791 1250C1823.91 1246.39 1856.82 1242.77 1891.99 1242.11 1927.16 1241.46 1964.58 1243.76 2002 1246.06" stroke="#000000" stroke-width="10.3125" stroke-linecap="round" stroke-linejoin="miter" stroke-miterlimit="8" stroke-opacity="1" fill="none" fill-rule="evenodd"/></g></g></svg>