<?xml version="1.0" encoding="utf-8"?>
<!-- Generator: Adobe Illustrator 25.4.1, SVG Export Plug-In . SVG Version: 6.00 Build 0)  -->
<svg version="1.1"
	 id="svg8" sodipodi:docname="semantic-scholar.svg" xmlns:cc="http://creativecommons.org/ns#" xmlns:dc="http://purl.org/dc/elements/1.1/" xmlns:inkscape="http://www.inkscape.org/namespaces/inkscape" xmlns:rdf="http://www.w3.org/1999/02/22-rdf-syntax-ns#" xmlns:sodipodi="http://sodipodi.sourceforge.net/DTD/sodipodi-0.dtd" xmlns:svg="http://www.w3.org/2000/svg"
	 xmlns="http://www.w3.org/2000/svg" xmlns:xlink="http://www.w3.org/1999/xlink" x="0px" y="0px" viewBox="0 0 505.6 379.6"
	 style="enable-background:new 0 0 505.6 379.6;" xml:space="preserve">
<style type="text/css">
	.st0{fill:#FFFFFF;}
</style>
<sodipodi:namedview  bordercolor="#666666" borderopacity="1.0" id="base" inkscape:current-layer="layer6" inkscape:cx="256" inkscape:cy="256" inkscape:document-rotation="0" inkscape:document-units="px" inkscape:guide-bbox="true" inkscape:pageopacity="0.0" inkscape:pageshadow="2" inkscape:window-height="713" inkscape:window-maximized="1" inkscape:window-width="1315" inkscape:window-x="51" inkscape:window-y="27" inkscape:zoom="0.75" pagecolor="#ffffff" showgrid="true" showguides="true" units="px">
	<inkscape:grid  empspacing="4" id="grid10" type="xygrid"></inkscape:grid>
	
		<sodipodi:guide  id="guide23" inkscape:color="rgb(0,0,255)" inkscape:label="baseline" inkscape:locked="true" orientation="0,1" position="511.99998,64">
		</sodipodi:guide>
</sodipodi:namedview>
<g id="layer6" inkscape:groupmode="layer" inkscape:label="icon">
	<path id="path2" sodipodi:nodetypes="cccccccccccccccccccccccccccccccccccccccccc" class="st0" d="M375.9,9
		c18.2,40.7,25.5,83.9,32.4,127.2c-1.3,0.4-2.5,0.7-3.8,1.1c-0.9-2.5-2-5-2.7-7.6c-5.2-18.7-10.5-37.3-15.5-56
		c-1.8-6.7-6-10.1-12.1-13.4c-8.9-4.8-17.3-11.1-24.7-18c-4.7-4.4-8.7-7.1-15.4-7.1c-44.5,0.5-88.9,0.5-133.4,0.9
		c-3,0-6.6,1.1-8.7,3.1c-8.1,7.5-15.7,15.5-25.6,25.6c26.3,64,39.5,133.8,33.8,208c-12.6-8.1-22.4-14.5-23-31.4
		c-2.9-84.7-29-161.2-83.6-227.1c-1.2-1.5-1.8-3.5-2.7-5.2L375.9,9L375.9,9z M45.5,41.6c12.7,0,25.3-0.2,38,0.2
		c2.5,0.1,6,1.7,7.3,3.7c37.8,60.8,67.3,124.6,71.2,197.7c0,0.3-0.3,0.6-1.4,2.7C138,168.6,97.2,103.2,44.7,44.5
		C45,43.6,45.3,42.6,45.5,41.6L45.5,41.6z M4.8,94.8c18.1-0.7,33.4-1.3,48.7-1.6c1.5,0,3.4,2,4.7,3.4
		c29.8,33.2,56.9,68.3,73.6,110.2c3.2,8,5.4,16.4,8,24.6C105.2,177,57.1,136.3,4.8,94.8L4.8,94.8z M199.3,370.6
		c-31.5-50.1-61.8-98.3-92.1-146.5c0.4-0.5,0.7-1,1.1-1.4c2.5,2,56.6,45.4,80.9,65.3c6.8,5.5,11.9,5.4,18.9-0.3
		c82.6-67.1,174.7-117.9,272.6-158.8c5.2-2.2,10.6-3.9,16-5.8c1.2-0.4,2.4-0.7,4.2-0.2C387.2,188.8,278.8,261.1,199.3,370.6
		L199.3,370.6z"/>
</g>
</svg>
